<?xml version="1.0" encoding="UTF-8" standalone="no"?>
<svg width="86px" height="42px" viewBox="0 0 86 42" version="1.1" xmlns="http://www.w3.org/2000/svg" xmlns:xlink="http://www.w3.org/1999/xlink" xmlns:sketch="http://www.bohemiancoding.com/sketch/ns">
    <!-- Generator: Sketch 3.4.2 (15855) - http://www.bohemiancoding.com/sketch -->
    <title>Path Copy</title>
    <desc>Created with Sketch.</desc>
    <defs></defs>
    <g id="Page-1" stroke="none" stroke-width="1" fill="none" fill-rule="evenodd" sketch:type="MSPage">
        <g id="HOMEPAGE---FINAL-with-promo" sketch:type="MSArtboardGroup" transform="translate(-118.000000, -32.000000)" fill="#FFFFFF">
            <g id="HERO" sketch:type="MSLayerGroup" transform="translate(-2.000000, -1.000000)">
                <g id="HEADER" transform="translate(120.000000, 33.000000)" sketch:type="MSShapeGroup">
                    <path d="M62.1325513,15.1232282 C61.8306002,20.1992622 60.8792226,23.8339025 57.4451151,23.8339025 C56.1600594,23.8339025 55.6758792,23.1514034 55.6840492,22.1822547 C55.7820893,10.6001396 56.1220044,6.12735537 56.1220044,3.05232934 C56.1220044,1.56910125 54.9975539,0.378612778 53.4725581,0.378612778 C51.9479925,0.378612778 50.6835768,1.70434107 50.6835768,3.18756916 C50.6835768,5.8085946 50.804616,7.80646465 50.8403708,14.8349287 C50.5694379,20.7631412 49.2243425,23.8864025 45.6250544,23.8864025 C43.8401234,23.8864025 43.102888,22.693394 43.102888,21.6499053 C43.102888,18.7556891 43.1942632,15.1394938 43.2914432,12.1398577 C43.2914432,12.1398577 45.4220942,12.1511976 46.3867997,12.1474176 C47.4276152,12.1434276 48.2259106,11.4365686 48.2259106,10.4235298 C48.2259106,9.41070114 47.6219753,8.60178219 46.1395496,8.61879217 C44.5408087,8.63727215 43.4518333,8.63727215 43.3251982,8.63874213 C43.3211132,6.92556435 43.4213032,5.37933634 43.4213032,4.25793778 C43.4213032,2.77449969 42.2104227,1.54453127 40.6856419,1.54453127 C39.1610761,1.54453127 37.9824456,2.77449969 37.9824456,4.25793778 C37.9824456,5.56035611 37.9802955,8.70531206 37.9802955,8.70531206 C36.773285,8.70531206 36.0377696,9.54174098 36.0377696,10.4462098 C36.0377696,11.3504687 36.732435,12.0743377 38.1430506,12.0743377 C38.1430506,12.0743377 38.1319262,13.8186946 38.1192586,15.9061322 L38.1192586,15.9061322 C37.8778046,21.5044287 36.8549005,23.8864025 33.7430735,23.8864025 C32.1540077,23.8864025 31.6171525,22.4132544 31.6171525,21.4520857 C31.6171525,19.7914078 31.6908975,16.6523318 31.8738626,11.8838679 C31.9282576,10.4676298 30.9153921,9.12636151 29.3908263,9.12636151 C27.8664757,9.12636151 26.8869351,10.3825799 26.8869351,11.865808 C26.8869351,11.865808 26.8942034,12.3788133 26.9054771,13.1888454 L26.9054771,13.1888454 C26.7078224,17.1064435 25.6458637,21.0520833 20.5605571,23.3427132 C24.5283839,16.3058322 20.6669821,8.95059173 14.5844142,8.95059173 C11.6632077,8.95059173 9.91439684,9.96699043 8.72415625,10.9142992 C8.72415625,8.73891201 8.79897629,4.87575699 8.79897629,4.87575699 C8.79897629,2.19406044 7.83362581,0.0474432051 4.46844417,0.000613265453 C2.52097322,-0.0264766996 1.07574251,0.842922181 0.174462064,2.80788965 C-0.150403095,3.5447787 -0.0308630367,4.34550767 0.611342278,4.7083872 C1.14239254,5.00847682 2.01593797,4.7860871 2.44851817,4.22454782 C2.73726332,3.87384828 2.8991584,3.79887837 3.15006352,3.82512833 C3.56350872,3.86838828 3.57920373,4.51665744 3.59554374,4.93098691 C3.60822875,5.24934651 3.9259989,9.04236162 3.75206382,20.9220463 C3.75206382,24.1957321 6.3881801,28.3986666 12.6997231,28.3986666 C18.9572444,28.3986666 23.8579778,26.8333789 27.0363426,23.5482261 C27.1754575,26.6890889 30.1130039,28.3677968 32.9075831,28.3677968 C35.792334,28.3677968 37.8589507,27.7492485 39.2936731,26.183141 C40.4056503,27.5062187 42.2624526,28.3539368 44.7758039,28.3539368 C47.6600588,28.3539368 49.8062322,27.3807871 51.3451395,25.5825099 L51.3451395,25.5825099 C52.3886399,27.2365286 54.4960061,28.3774568 56.7076647,28.3774568 C60.0644972,28.3774568 62.2926638,27.2739428 63.7144717,24.9934596 C64.9467614,26.9177733 66.978811,28.2800709 69.9327512,28.3522568 C73.7623331,28.4457066 75.2735688,26.5101391 75.2735688,26.5101391 L75.4911489,28.7871662 C68.7057456,30.4560341 64.0047683,31.7941523 64.0191733,36.3887364 C64.0284183,39.2987026 66.7589196,42.7181283 72.7959076,41.8678393 C79.8451161,40.8749606 80.1106412,35.3807377 80.1003212,31.6566025 C83.4225029,30.544444 84.7363684,29.2006556 85.746869,27.0048984 C86.1383842,26.1543995 86.1755791,24.9901611 85.1287437,24.3946019 C84.3682883,23.9617924 83.1344026,24.1711621 82.4889724,25.1485009 C81.4199918,26.7669688 80.4107814,27.434558 79.711601,27.6619876 C79.4882159,26.2871194 79.5817409,20.0755374 79.5817409,20.0755374 C79.5817409,17.0003013 79.748151,15.0288239 79.748151,13.0392865 C79.748151,11.5560584 78.6890604,10.32609 77.1649247,10.32609 C75.639929,10.32609 74.5819135,11.5560584 74.5819135,13.0392865 C74.5819135,15.0288239 74.6575935,16.3232622 74.6298585,18.4936094 C74.5724535,22.9785737 72.2201374,23.8593125 70.0783063,23.8654025 C67.8474652,23.8717025 66.9313497,21.5648554 66.9580097,18.9465789 C66.9803698,16.7760217 67.1052848,15.0288239 67.1052848,13.0392865 C67.1052848,11.5560584 66.2089494,10.32609 64.6843836,10.32609 C63.1593879,10.32609 62.1480274,11.5268685 62.1480274,13.0100965 C62.1480274,13.6843973 62.138198,14.3794434 62.1325513,15.1232282 L62.1325513,15.1232282 L62.1325513,15.1232282 Z M17.2403104,17.7684803 C17.2403104,14.4803046 15.5209546,13.3316061 12.9394483,13.8341355 C10.8644823,14.2381749 8.97742637,16.1332125 8.74974126,19.0587187 C8.71211624,19.5412981 8.69964624,20.1847372 8.73899126,20.9359063 C8.84412631,22.9378338 10.345472,23.8460825 12.6997231,23.8059727 C16.6064901,23.7391927 17.2403104,19.9902776 17.2403104,17.7684803 L17.2403104,17.7684803 Z M75.9351241,32.4533414 C72.5052275,33.1761605 68.2082353,34.2322492 68.2583304,36.2952865 C68.3052005,38.2295941 70.3500664,38.5817636 72.0548023,38.237574 C75.595854,37.522735 76.0069341,35.4418476 75.9351241,32.4533414 L75.9351241,32.4533414 Z M29.3869563,1.55734126 C30.9261422,1.55734126 32.1705627,2.7679897 32.1705627,4.26549777 C32.1705627,5.76300584 30.9261422,6.97365428 29.3869563,6.97365428 C27.8477706,6.97365428 26.60335,5.76300584 26.60335,4.26549777 C26.60335,2.7679897 27.8477706,1.55734126 29.3869563,1.55734126 L29.3869563,1.55734126 Z" id="Path-Copy"></path>
                </g>
            </g>
        </g>
    </g>
</svg>